<svg xmlns="http://www.w3.org/2000/svg" viewBox="0 0 523 490">
  <g fill="#1E3730">
    <path d="M139.489 80.999 C 116.227 84.200, 92.593 106.615, 88.879 129 C 86.318 144.437, 89.545 162.379, 96.923 173.723 C 117.379 205.173, 156.412 212.118, 185.299 189.445 C 218.158 163.656, 218.415 117.026, 185.835 92.535 C 178.118 86.734, 173.629 84.398, 166.780 82.618 C 159.612 80.756, 146.790 79.995, 139.489 80.999 Z"/>
    <path d="M137.500 290.480 C 113.152 295.001, 94.773 312.734, 89.381 336.908 C 80.019 378.885, 114.924 417.130, 157.149 411.159 C 181.690 407.689, 205.424 384.321, 209.110 360 C 215.584 317.288, 179.867 282.613, 137.500 290.480 Z"/>
    <path d="M324.656 35.527 C 309.861 39.247, 290.539 53.896, 283.989 66.359 L 281.500 71.094 284.848 77.297 C 286.690 80.709, 299.706 101.886, 313.773 124.358 L 339.350 165.216 342.925 164.731 C 344.891 164.465, 355.180 161.012, 365.789 157.059 C 376.398 153.106, 386.069 150.013, 387.281 150.186 C 392.602 150.945, 405.878 191.292, 409.595 218 C 411.896 234.542, 411.115 269.060, 408.079 285 C 404.680 302.840, 400.358 317.263, 393.291 334.352 C 389.389 343.789, 388.206 344.937, 384.103 343.270 C 368.539 336.949, 344.064 328, 342.342 328 C 340.612 328, 338.083 331.274, 330.175 343.750 C 292.358 403.413, 282.864 418.692, 282.360 420.703 C 281.131 425.599, 289.566 437.331, 299.995 445.232 C 313.292 455.305, 325.638 459.518, 341.500 459.393 C 367.024 459.194, 383.347 449.594, 405.910 421.514 C 439.153 380.144, 459.028 335.486, 466.666 285 C 469.375 267.092, 469.100 221.973, 466.177 204.772 C 456.071 145.300, 431.300 95.068, 393.552 57.500 C 375.558 39.591, 365.429 34.863, 344 34.369 C 334.521 34.150, 328.760 34.495, 324.656 35.527 Z"/>
  </g>
</svg>
